<svg width="50" height="50" viewBox="0 0 50 50" fill="none" xmlns="http://www.w3.org/2000/svg">
<path d="M43.1699 24.6445C43.1698 37.4571 35.183 47.459 25.748 47.459C16.3131 47.4588 8.32627 37.457 8.32617 24.6445C8.32617 11.8319 16.3131 1.83023 25.748 1.83008C35.1831 1.83008 43.1699 11.8318 43.1699 24.6445Z" fill="#335AAA" stroke="black" stroke-width="1.65925"/>
<mask id="path-2-inside-1_131_15" fill="white">
<path d="M25.419 48.6274C17.0389 48.5203 10.3322 41.64 10.4393 33.2599C10.5144 27.3886 13.9148 22.3402 18.8258 19.8796C17.2312 18.1803 16.2644 15.8873 16.2965 13.3731C16.3624 8.2162 20.597 4.08848 25.7539 4.15439C30.9108 4.2204 35.0376 8.45494 34.9717 13.6118C34.9405 16.0466 33.9801 18.2516 32.4322 19.8943C37.4503 22.4227 40.8631 27.651 40.7864 33.6477C40.6794 42.0278 33.799 48.7344 25.419 48.6274Z"/>
</mask>
<path d="M25.419 48.6274C17.0389 48.5203 10.3322 41.64 10.4393 33.2599C10.5144 27.3886 13.9148 22.3402 18.8258 19.8796C17.2312 18.1803 16.2644 15.8873 16.2965 13.3731C16.3624 8.2162 20.597 4.08848 25.7539 4.15439C30.9108 4.2204 35.0376 8.45494 34.9717 13.6118C34.9405 16.0466 33.9801 18.2516 32.4322 19.8943C37.4503 22.4227 40.8631 27.651 40.7864 33.6477C40.6794 42.0278 33.799 48.7344 25.419 48.6274Z" fill="#D33039"/>
<path d="M25.419 48.6274L25.4084 49.4569L25.4084 49.4569L25.419 48.6274ZM10.4393 33.2599L9.60976 33.2493L9.60976 33.2493L10.4393 33.2599ZM18.8258 19.8796L19.1975 20.6214L20.192 20.1231L19.4308 19.3119L18.8258 19.8796ZM16.2965 13.3731L15.4669 13.3625L15.4669 13.3626L16.2965 13.3731ZM25.7539 4.15439L25.7645 3.32483L25.7645 3.32483L25.7539 4.15439ZM34.9717 13.6118L35.8013 13.6224L35.8013 13.6224L34.9717 13.6118ZM32.4322 19.8943L31.8284 19.3254L31.0657 20.1348L32.0589 20.6352L32.4322 19.8943ZM40.7864 33.6477L41.616 33.6583L41.616 33.6583L40.7864 33.6477ZM25.419 48.6274L25.4296 47.7978C17.5076 47.6966 11.1676 41.1924 11.2689 33.2705L10.4393 33.2599L9.60976 33.2493C9.49681 42.0875 16.5701 49.344 25.4084 49.4569L25.419 48.6274ZM10.4393 33.2599L11.2689 33.2705C11.3398 27.7215 14.5527 22.9485 19.1975 20.6214L18.8258 19.8796L18.4542 19.1379C13.277 21.7318 9.68892 27.0556 9.60976 33.2493L10.4393 33.2599ZM18.8258 19.8796L19.4308 19.3119C17.9766 17.7623 17.0968 15.6742 17.126 13.3837L16.2965 13.3731L15.4669 13.3626C15.432 16.1004 16.4858 18.5984 18.2209 20.4473L18.8258 19.8796ZM16.2965 13.3731L17.126 13.3838C17.1861 8.68496 21.0445 4.92389 25.7433 4.98394L25.7539 4.15439L25.7645 3.32483C20.1494 3.25307 15.5387 7.74745 15.4669 13.3625L16.2965 13.3731ZM25.7539 4.15439L25.7433 4.98394C30.4419 5.04409 34.2022 8.9024 34.1421 13.6012L34.9717 13.6118L35.8013 13.6224C35.873 8.00749 31.3796 3.39671 25.7645 3.32483L25.7539 4.15439ZM34.9717 13.6118L34.1421 13.6012C34.1137 15.8201 33.2394 17.828 31.8284 19.3254L32.4322 19.8943L33.036 20.4633C34.7208 18.6753 35.7673 16.2731 35.8013 13.6224L34.9717 13.6118ZM32.4322 19.8943L32.0589 20.6352C36.8046 23.0264 40.0293 27.9695 39.9569 33.6371L40.7864 33.6477L41.616 33.6583C41.6968 27.3325 38.0959 21.819 32.8055 19.1534L32.4322 19.8943ZM40.7864 33.6477L39.9569 33.6371C39.8556 41.559 33.3515 47.899 25.4296 47.7978L25.419 48.6274L25.4084 49.4569C34.2466 49.5698 41.5031 42.4965 41.616 33.6583L40.7864 33.6477Z" fill="black" mask="url(#path-2-inside-1_131_15)"/>
<circle cx="25.4189" cy="32.0254" r="12.8984" transform="rotate(173.856 25.4189 32.0254)" fill="#F5BC4B" stroke="black" stroke-width="0.414812"/>
<circle cx="25.1361" cy="29.9567" r="8.89502" transform="rotate(173.856 25.1361 29.9567)" fill="#F5BC4B" stroke="black" stroke-width="0.414812"/>
<circle cx="23.0762" cy="31.8972" r="5.82736" transform="rotate(173.856 23.0762 31.8972)" fill="white" stroke="black" stroke-width="0.414812"/>
<circle cx="28.8888" cy="10.4807" r="3.35093" transform="rotate(173.856 28.8888 10.4807)" fill="white" stroke="black" stroke-width="0.238531"/>
</svg>
